<?xml version="1.0" encoding="UTF-8"?>
<svg width="110px" height="110px" viewBox="0 0 110 110" version="1.1" xmlns="http://www.w3.org/2000/svg" xmlns:xlink="http://www.w3.org/1999/xlink">
    <!-- Generator: Sketch 63.1 (92452) - https://sketch.com -->
    <title>seguro_vuelas</title>
    <desc>Created with Sketch.</desc>
    <g id="Page-1" stroke="none" stroke-width="1" fill="none" fill-rule="evenodd">
        <g id="seguro_vuelas" fill-rule="nonzero">
            <rect id="Rectangle" fill="#A12885" x="0" y="0" width="110" height="110"></rect>
            <g id="Group" transform="translate(7.000000, 22.000000)" fill="#FFFFFF">
                <path d="M27.8,47.1 C27.8,50.4 25.8,52.9 21.9,52.9 C18,52.9 16,50.4 16,47.1 L16,38.4 L19.1,38.4 L19.1,47 C19.1,48.7 20.3,50 21.9,50 C23.5,50 24.7,48.7 24.7,47 L24.7,38.5 L27.8,38.5 L27.8,47.1 L27.8,47.1 Z" id="Path"></path>
                <polygon id="Path_1_" points="30.8 38.5 40.4 38.5 40.4 41.3 33.9 41.3 33.9 44 40 44 40 46.8 33.9 46.8 33.9 49.7 40.7 49.7 40.7 52.6 30.8 52.6"></polygon>
                <polygon id="Path_2_" points="43.3 38.5 46.5 38.5 46.5 49.7 52.2 49.7 52.2 52.6 43.3 52.6"></polygon>
                <path d="M58.5,38.5 L61.1,38.5 L67.2,52.6 L63.7,52.6 L62.5,49.6 L57,49.6 L55.8,52.6 L52.4,52.6 L58.5,38.5 Z M59.7,42.6 L58,46.9 L61.4,46.9 L59.7,42.6 Z" id="Shape"></path>
                <path d="M75.6,41.9 C75.1,41.3 74.1,41 73.4,41 C72.5,41 71.3,41.4 71.3,42.5 C71.3,45.1 77.8,43.4 77.8,48.3 C77.8,51.4 75.3,52.9 72.4,52.9 C70.6,52.9 69,52.4 67.7,51.1 L69.9,48.7 C70.5,49.5 71.6,50 72.6,50 C73.6,50 74.7,49.5 74.7,48.5 C74.7,45.9 68.1,47.3 68.1,42.6 C68.1,39.6 70.7,38 73.5,38 C75.1,38 76.6,38.4 77.8,39.5 L75.6,41.9 Z" id="Path_3_"></path>
                <path d="M9.6,20.6 C9,19.9 7.9,19.5 7,19.5 C6,19.5 4.6,20 4.6,21.2 C4.6,24.2 12.1,22.3 12.1,27.9 C12.1,31.5 9.2,33.2 5.8,33.2 C3.7,33.2 1.9,32.6 0.3,31.2 L2.8,28.4 C3.5,29.4 4.7,29.9 5.9,29.9 C7.1,29.9 8.4,29.3 8.4,28.2 C8.4,25.2 0.8,26.8 0.8,21.4 C0.8,17.9 3.8,16.1 7,16.1 C8.8,16.1 10.6,16.6 12,17.8 L9.6,20.6 Z" id="Path_4_"></path>
                <polygon id="Path_5_" points="14.9 16.6 25.9 16.6 25.9 19.9 18.4 19.9 18.4 22.9 25.5 22.9 25.5 26.2 18.4 26.2 18.4 29.5 26.3 29.5 26.3 32.8 14.9 32.8"></polygon>
                <path d="M43.9,31.7 C41.8,32.8 39.5,33.3 37.1,33.3 C32,33.3 28.3,30 28.3,24.8 C28.3,19.6 32,16.3 37.1,16.3 C39.7,16.3 41.9,16.9 43.6,18.4 L41,21 C40,20 38.9,19.5 37.1,19.5 C34,19.5 32.1,21.7 32.1,24.7 C32.1,27.7 34.1,29.9 37.1,29.9 C38.7,29.9 39.8,29.5 40.5,29.1 L40.5,26.5 L37.6,26.5 L37.6,23.2 L44,23.2 L43.9,31.7 L43.9,31.7 Z" id="Path_6_"></path>
                <path d="M60.7,26.6 C60.7,30.4 58.4,33.3 53.9,33.3 C49.4,33.3 47,30.5 47,26.6 L47,16.6 L50.6,16.6 L50.6,26.4 C50.6,28.4 52,29.9 53.9,29.9 C55.8,29.9 57.2,28.4 57.2,26.4 L57.2,16.6 L60.8,16.6 L60.7,26.6 L60.7,26.6 Z" id="Path_7_"></path>
                <path d="M64,16.6 L70.3,16.6 C73.6,16.6 76.4,17.7 76.4,21.5 C76.4,23.8 75.2,25.5 72.9,26 L77,32.9 L72.7,32.9 L69.3,26.4 L67.5,26.4 L67.5,32.9 L64,32.9 L64,16.6 Z M67.6,23.3 L69.7,23.3 C71,23.3 72.7,23.3 72.7,21.5 C72.7,19.9 71.2,19.6 69.9,19.6 L67.6,19.6 L67.6,23.3 Z" id="Shape_1_"></path>
                <path d="M86.8,16.2 C91.9,16.2 95.6,19.5 95.6,24.7 C95.6,29.9 91.9,33.2 86.8,33.2 C81.7,33.2 78,29.9 78,24.7 C78,19.5 81.7,16.2 86.8,16.2 M86.8,30 C89.9,30 91.8,27.8 91.8,24.8 C91.8,21.8 89.8,19.6 86.8,19.6 C83.7,19.6 81.8,21.8 81.8,24.8 C81.8,27.8 83.8,30 86.8,30" id="Shape_2_"></path>
                <path d="M33.7,6.4 C33.5,6.1 33.1,5.9 32.7,5.9 C31.7,5.9 31.2,6.5 31.2,7.5 C31.2,8.4 31.8,9.1 32.7,9.1 C33.1,9.1 33.4,8.9 33.7,8.6 L35,10 C34.4,10.6 33.5,10.8 32.8,10.8 C30.9,10.8 29.3,9.5 29.3,7.5 C29.3,5.5 30.8,4.2 32.8,4.2 C33.5,4.2 34.4,4.4 35,5 L33.7,6.4 Z" id="Path_8_"></path>
                <path d="M38.9,4.2 C40.8,4.2 42.4,5.5 42.4,7.5 C42.4,9.5 40.9,10.8 38.9,10.8 C37,10.8 35.4,9.5 35.4,7.5 C35.4,5.5 37,4.2 38.9,4.2 M38.9,9.1 C39.9,9.1 40.4,8.5 40.4,7.5 C40.4,6.6 39.8,5.9 38.9,5.9 C37.9,5.9 37.4,6.5 37.4,7.5 C37.4,8.5 38,9.1 38.9,9.1" id="Shape_3_"></path>
                <path d="M43.5,4.4 L45.4,4.4 L45.4,5.3 L45.4,5.3 C45.7,4.8 46.3,4.3 47.2,4.3 C49.2,4.3 49.5,5.6 49.5,7.3 L49.5,10.8 L47.6,10.8 L47.6,7.7 C47.6,7 47.6,6 46.6,6 C45.6,6 45.4,6.8 45.4,7.6 L45.4,10.7 L43.5,10.7 L43.5,4.4 L43.5,4.4 Z" id="Path_9_"></path>
                <polygon id="Path_10_" points="53.1 4.2 55.3 4.2 57 8.5 57 8.5 58.5 4.2 60.6 4.2 58 10.5 55.8 10.5"></polygon>
                <path d="M64.4,4 C66.4,4 68,5.3 68,7.3 C68,9.3 66.4,10.6 64.4,10.6 C62.4,10.6 60.8,9.3 60.8,7.3 C60.8,5.3 62.4,4 64.4,4 M64.4,9 C65.4,9 66,8.3 66,7.4 C66,6.4 65.4,5.8 64.4,5.8 C63.4,5.8 62.8,6.5 62.8,7.4 C62.8,8.3 63.4,9 64.4,9" id="Shape_4_"></path>
                <rect id="Rectangle_1_" x="69.2" y="0.6" width="2" height="9.9"></rect>
                <path d="M79.5,10.5 L77.6,10.5 L77.6,9.7 L77.6,9.7 C77.3,10.2 76.5,10.7 75.6,10.7 C73.7,10.7 72.4,9.3 72.4,7.4 C72.4,5.6 73.5,4 75.4,4 C76.2,4 77,4.2 77.5,4.8 L77.5,4.8 L77.5,4.1 L79.5,4.1 L79.5,10.5 L79.5,10.5 Z M76,5.7 C75,5.7 74.4,6.4 74.4,7.3 C74.4,8.3 75,8.9 76,8.9 C77,8.9 77.6,8.2 77.6,7.3 C77.6,6.4 77,5.7 76,5.7" id="Shape_5_"></path>
                <path d="M81.2,4.2 L83.2,4.2 L83.2,5.2 L83.2,5.2 C83.6,4.4 84.2,4 85.1,4 C85.3,4 85.6,4 85.8,4.1 L85.8,5.9 C85.5,5.8 85.2,5.8 84.9,5.8 C83.4,5.8 83.2,6.7 83.2,7.9 L83.2,10.6 L81.2,10.6 L81.2,4.2 Z" id="Path_11_"></path>
                <rect id="Rectangle_2_" x="86.9" y="4.2" width="2" height="6.4"></rect>
                <path d="M94.3,6 C94,5.7 93.5,5.5 93,5.5 C92.7,5.5 92.2,5.7 92.2,6.1 C92.2,7.1 95.6,6.3 95.6,8.7 C95.6,10.3 94,10.8 92.6,10.8 C91.6,10.8 90.7,10.6 90,9.9 L91.2,8.7 C91.6,9.1 92.1,9.4 92.7,9.4 C93.2,9.4 93.6,9.2 93.6,8.9 C93.6,7.8 90.2,8.7 90.2,6.3 C90.2,4.8 91.6,4.2 92.9,4.2 C93.8,4.2 94.7,4.4 95.3,5 L94.3,6 Z" id="Path_12_"></path>
                <rect id="Rectangle_3_" x="86.9" y="0.6" width="2" height="2"></rect>
                <path d="M94.3,39.1 C94.3,39.1 93.3,38.9 92.5,39.5 C91.7,40 90.3,41.5 90.2,41.5 C90.1,41.6 90,41.7 89.9,41.7 C89.8,41.7 89.7,41.7 89.5,41.7 L83.1,41 C83,41 82.7,41 82.6,41 C82.4,41 82,41.4 82,41.5 L81.9,41.6 C81.8,41.7 81.6,41.9 81.6,42.1 C81.6,42.2 81.5,42.4 82.1,42.8 L86.6,45.1 L85,46.7 C84.9,46.8 84.8,46.9 84.7,46.9 C84.6,46.9 84.5,46.9 84.3,46.9 L82.1,46.7 C82.1,46.7 81.7,46.7 81.5,46.7 C81.3,46.8 81,47.1 81,47.1 C80.9,47.2 80.9,47.3 80.8,47.5 C80.8,47.7 80.9,47.9 81.3,48.2 C82.3,48.8 83.9,49.7 84.1,49.8 C84.3,50 85.1,51.5 85.7,52.6 C85.7,52.7 85.9,53 86,53 C86.3,53.2 86.7,52.9 86.7,52.9 C86.8,52.8 86.9,52.7 87,52.6 C87.2,52.4 87.1,51.9 87.1,51.8 L86.9,49.6 C86.9,49.5 86.9,49.3 86.9,49.3 C86.9,49.2 87.1,49.1 87.1,49 L88.7,47.4 L91,51.9 C91.1,52 91.2,52.3 91.3,52.4 C91.5,52.5 91.8,52.5 92.1,52.2 L92.2,52.1 C92.3,52.1 92.3,52 92.4,51.9 C92.5,51.8 92.5,51.8 92.6,51.7 C92.7,51.5 92.7,51 92.7,50.9 L92,44.5 C92,44.4 92,44.2 92,44.2 C92,44.1 92.1,44 92.2,43.9 C92.3,43.8 93.7,42.4 94.2,41.6 C94.8,40.7 94.6,39.8 94.6,39.8 C94.9,39.5 94.6,39.2 94.3,39.1" id="Path_13_"></path>
                <path d="M0.9,59.9 L3,59.9 C3.8,59.9 4.7,60.3 4.7,61.3 C4.7,61.9 4.3,62.3 3.8,62.5 L3.8,62.5 C4.5,62.6 5,63.1 5,63.8 C5,65 4,65.3 2.9,65.3 L0.9,65.3 L0.9,59.9 L0.9,59.9 Z M1.9,62.1 L2.8,62.1 C3.4,62.1 3.8,61.8 3.8,61.4 C3.8,60.9 3.5,60.7 2.7,60.7 L1.9,60.7 L1.9,62.1 Z M1.9,64.5 L2.8,64.5 C3.3,64.5 4,64.4 4,63.7 C4,63.1 3.6,62.9 2.8,62.9 L1.9,62.9 L1.9,64.5 Z" id="Shape_6_"></path>
                <path d="M8.1,64.8 L8.1,64.8 C7.8,65.2 7.4,65.4 6.9,65.4 C6.2,65.4 5.6,65 5.6,64.3 C5.6,63.1 7,63 7.9,63 L8.1,63 L8.1,62.9 C8.1,62.4 7.7,62.2 7.3,62.2 C6.9,62.2 6.6,62.4 6.3,62.6 L5.8,62.1 C6.2,61.7 6.8,61.5 7.4,61.5 C9,61.5 9,62.6 9,63.2 L9,65.3 L8.2,65.3 L8.1,64.8 L8.1,64.8 Z M8,63.6 L7.8,63.6 C7.3,63.6 6.4,63.6 6.4,64.2 C6.4,64.5 6.7,64.7 7,64.7 C7.6,64.7 7.9,64.4 7.9,63.9 L8,63.6 L8,63.6 Z" id="Shape_7_"></path>
                <path d="M9.9,61.6 L10.8,61.6 L10.8,62.2 L10.8,62.2 C11,61.8 11.4,61.5 11.9,61.5 C12,61.5 12.1,61.5 12.2,61.6 L12.2,62.5 C12,62.5 11.9,62.4 11.8,62.4 C10.9,62.4 10.8,63.1 10.8,63.3 L10.8,65.3 L9.9,65.3 L9.9,61.6 L9.9,61.6 Z" id="Path_14_"></path>
                <path d="M15.2,64.8 L15.2,64.8 C14.9,65.2 14.5,65.4 14,65.4 C13.3,65.4 12.7,65 12.7,64.3 C12.7,63.1 14.1,63 15,63 L15.2,63 L15.2,62.9 C15.2,62.4 14.8,62.2 14.4,62.2 C14,62.2 13.7,62.4 13.4,62.6 L12.9,62.1 C13.3,61.7 13.9,61.5 14.5,61.5 C16.1,61.5 16.1,62.6 16.1,63.2 L16.1,65.3 L15.3,65.3 L15.3,64.8 L15.2,64.8 Z M15.1,63.6 L14.9,63.6 C14.4,63.6 13.5,63.6 13.5,64.2 C13.5,64.5 13.8,64.7 14.1,64.7 C14.7,64.7 15,64.4 15,63.9 L15,63.6 L15.1,63.6 L15.1,63.6 Z" id="Shape_8_"></path>
                <path d="M16.6,62.4 L16.6,61.6 L17.4,61.6 L17.4,60.5 L18.3,60.5 L18.3,61.6 L19.3,61.6 L19.3,62.4 L18.3,62.4 L18.3,64 C18.3,64.4 18.4,64.6 18.8,64.6 C19,64.6 19.2,64.6 19.3,64.5 L19.3,65.3 C19.1,65.4 18.8,65.4 18.6,65.4 C17.6,65.4 17.4,65 17.4,64.1 L17.4,62.4 L16.6,62.4 L16.6,62.4 Z" id="Path_15_"></path>
                <path d="M21.8,61.5 C22.9,61.5 23.8,62.3 23.8,63.4 C23.8,64.6 22.9,65.3 21.8,65.3 C20.7,65.3 19.8,64.5 19.8,63.4 C19.8,62.3 20.7,61.5 21.8,61.5 M21.8,64.6 C22.5,64.6 22.9,64.1 22.9,63.5 C22.9,62.9 22.5,62.4 21.8,62.4 C21.1,62.4 20.7,62.9 20.7,63.5 C20.7,64 21.1,64.6 21.8,64.6" id="Shape_9_"></path>
                <polygon id="Path_16_" points="32.9 62.6 32.9 60.9 33.7 60.9 33.7 62.6 35.4 62.6 35.4 63.4 33.7 63.4 33.7 65 32.9 65 32.9 63.4 31.2 63.4 31.2 62.6"></polygon>
                <polygon id="Path_17_" points="37.4 59.9 38.3 59.9 38.3 64.4 40.6 64.4 40.6 65.3 37.4 65.3"></polygon>
                <path d="M41.7,59.8 C42,59.8 42.3,60 42.3,60.4 C42.3,60.7 42,61 41.7,61 C41.4,61 41.1,60.7 41.1,60.4 C41.2,60.1 41.4,59.8 41.7,59.8 M41.3,61.6 L42.2,61.6 L42.2,65.3 L41.3,65.3 L41.3,61.6 Z" id="Shape_10_"></path>
                <path d="M43.2,61.6 L44.1,61.6 L44.1,62.2 L44.1,62.2 C44.3,61.9 44.6,61.5 45.2,61.5 C45.8,61.5 46.2,61.7 46.4,62.2 C46.7,61.7 47.1,61.5 47.6,61.5 C48.6,61.5 48.9,62.2 48.9,63.1 L48.9,65.3 L48,65.3 L48,63.2 C48,62.7 47.9,62.3 47.3,62.3 C46.7,62.3 46.5,62.8 46.5,63.3 L46.5,65.3 L45.6,65.3 L45.6,63.1 C45.6,62.6 45.4,62.3 45,62.3 C44.4,62.3 44.2,62.7 44.2,63.2 L44.2,65.2 L43.3,65.2 L43.2,61.6 L43.2,61.6 Z" id="Path_18_"></path>
                <path d="M49.9,61.6 L50.8,61.6 L50.8,62.2 L50.8,62.2 C51.1,61.8 51.6,61.6 52.1,61.6 C53.2,61.6 53.9,62.4 53.9,63.5 C53.9,64.6 53.2,65.4 52.1,65.4 C51.4,65.4 51,65.1 50.8,64.8 L50.8,64.8 L50.8,67 L49.9,67 L49.9,61.6 Z M51.9,62.3 C51.2,62.3 50.8,62.8 50.8,63.4 C50.8,64 51.2,64.5 51.9,64.5 C52.6,64.5 53,64 53,63.4 C53,62.9 52.6,62.3 51.9,62.3" id="Shape_11_"></path>
                <path d="M55.2,59.8 C55.5,59.8 55.8,60 55.8,60.4 C55.8,60.7 55.5,61 55.2,61 C54.9,61 54.6,60.7 54.6,60.4 C54.7,60.1 54.9,59.8 55.2,59.8 M54.8,61.6 L55.7,61.6 L55.7,65.3 L54.8,65.3 L54.8,61.6 Z" id="Shape_12_"></path>
                <path d="M58.6,61.5 C59.7,61.5 60.6,62.3 60.6,63.4 C60.6,64.6 59.7,65.3 58.6,65.3 C57.5,65.3 56.6,64.5 56.6,63.4 C56.6,62.3 57.5,61.5 58.6,61.5 M58.6,64.6 C59.3,64.6 59.7,64.1 59.7,63.5 C59.7,62.9 59.3,62.4 58.6,62.4 C57.9,62.4 57.5,62.9 57.5,63.5 C57.5,64 57.9,64.6 58.6,64.6" id="Shape_13_"></path>
                <polygon id="Path_19_" points="68 59.9 71.5 59.9 71.5 60.7 69 60.7 69 62.2 71.4 62.2 71.4 63 69 63 69 65.3 68 65.3"></polygon>
                <rect id="Rectangle_4_" x="72.4" y="59.5" width="1" height="5.8"></rect>
                <path d="M75.1,63.8 C75.2,64.3 75.6,64.7 76.1,64.7 C76.6,64.7 76.9,64.5 77.1,64.2 L77.8,64.7 C77.4,65.2 76.8,65.4 76.2,65.4 C75.1,65.4 74.2,64.6 74.2,63.5 C74.2,62.3 75.1,61.6 76.2,61.6 C77.2,61.6 77.9,62.3 77.9,63.6 L77.9,63.9 L75.1,63.9 L75.1,63.8 L75.1,63.8 Z M77,63.1 C77,62.6 76.6,62.2 76.1,62.2 C75.6,62.2 75.2,62.5 75.1,63.1 L77,63.1 Z" id="Shape_14_"></path>
                <polygon id="Path_20_" points="79.7 63.3 78.4 61.6 79.6 61.6 80.3 62.7 81.1 61.6 82.1 61.6 80.9 63.3 82.4 65.3 81.2 65.3 80.3 64 79.3 65.3 78.2 65.3"></polygon>
                <path d="M83.3,59.8 C83.6,59.8 83.9,60 83.9,60.4 C83.9,60.7 83.6,61 83.3,61 C83,61 82.7,60.7 82.7,60.4 C82.8,60.1 83,59.8 83.3,59.8 M82.9,61.6 L83.8,61.6 L83.8,65.3 L82.9,65.3 L82.9,61.6 Z" id="Shape_15_"></path>
                <path d="M84.9,59.5 L85.8,59.5 L85.8,62.1 L85.8,62.1 C86,61.9 86.4,61.5 87.1,61.5 C88.2,61.5 88.9,62.3 88.9,63.4 C88.9,64.5 88.2,65.3 87.1,65.3 C86.6,65.3 86.1,65.1 85.8,64.7 L85.8,64.7 L85.8,65.3 L84.9,65.3 L84.9,59.5 Z M86.8,62.3 C86.1,62.3 85.7,62.8 85.7,63.4 C85.7,64 86.1,64.5 86.8,64.5 C87.5,64.5 87.9,64 87.9,63.4 C87.9,62.9 87.5,62.3 86.8,62.3" id="Shape_16_"></path>
                <rect id="Rectangle_5_" x="89.7" y="59.5" width="1" height="5.8"></rect>
                <path d="M92.4,63.8 C92.5,64.3 92.9,64.7 93.4,64.7 C93.9,64.7 94.2,64.5 94.4,64.2 L95.1,64.7 C94.7,65.2 94.1,65.4 93.5,65.4 C92.4,65.4 91.5,64.6 91.5,63.5 C91.5,62.3 92.4,61.6 93.5,61.6 C94.5,61.6 95.2,62.3 95.2,63.6 L95.2,63.9 L92.4,63.9 L92.4,63.8 L92.4,63.8 Z M94.3,63.1 C94.3,62.6 93.9,62.2 93.4,62.2 C92.9,62.2 92.5,62.5 92.4,63.1 L94.3,63.1 Z" id="Shape_17_"></path>
                <rect id="Rectangle_6_" x="27.3" y="58" width="1" height="10"></rect>
                <rect id="Rectangle_7_" x="64.1" y="58" width="1" height="10"></rect>
                <polygon id="Path_21_" points="0.6 38.5 4.1 38.5 7.6 47.7 7.6 47.7 11.2 38.5 14.5 38.5 8.7 52.6 6.2 52.6"></polygon>
            </g>
        </g>
    </g>
</svg>